<svg width="97" height="50" viewBox="0 0 97 50" fill="none" xmlns="http://www.w3.org/2000/svg">
<path d="M9.882 45C9.678 44.46 9.486 43.932 9.306 43.416C9.126 42.888 8.94 42.354 8.748 41.814H3.096L1.962 45H0.144C0.624 43.68 1.074 42.462 1.494 41.346C1.914 40.218 2.322 39.15 2.718 38.142C3.126 37.134 3.528 36.174 3.924 35.262C4.32 34.338 4.734 33.426 5.166 32.526H6.768C7.2 33.426 7.614 34.338 8.01 35.262C8.406 36.174 8.802 37.134 9.198 38.142C9.606 39.15 10.02 40.218 10.44 41.346C10.86 42.462 11.31 43.68 11.79 45H9.882ZM8.244 40.374C7.86 39.33 7.476 38.322 7.092 37.35C6.72 36.366 6.33 35.424 5.922 34.524C5.502 35.424 5.1 36.366 4.716 37.35C4.344 38.322 3.972 39.33 3.6 40.374H8.244ZM34.1518 45.27C33.3358 45.27 32.6278 45.144 32.0278 44.892C31.4278 44.64 30.9358 44.298 30.5518 43.866C30.1678 43.422 29.8798 42.9 29.6878 42.3C29.5078 41.7 29.4178 41.052 29.4178 40.356V32.526H31.1638V40.158C31.1638 41.406 31.4398 42.312 31.9918 42.876C32.5438 43.44 33.2638 43.722 34.1518 43.722C34.5958 43.722 34.9978 43.656 35.3578 43.524C35.7298 43.38 36.0478 43.164 36.3118 42.876C36.5758 42.588 36.7798 42.222 36.9238 41.778C37.0678 41.322 37.1398 40.782 37.1398 40.158V32.526H38.8858V40.356C38.8858 41.052 38.7898 41.7 38.5978 42.3C38.4178 42.9 38.1298 43.422 37.7338 43.866C37.3498 44.298 36.8578 44.64 36.2578 44.892C35.6698 45.144 34.9678 45.27 34.1518 45.27ZM66.4343 32.526V34.038H62.5103V45H60.7643V34.038H56.8403V32.526H66.4343ZM83.4819 38.754C83.4819 37.686 83.6379 36.744 83.9499 35.928C84.2739 35.112 84.7059 34.434 85.2459 33.894C85.7979 33.342 86.4339 32.928 87.1539 32.652C87.8859 32.376 88.6599 32.238 89.4759 32.238C90.2799 32.238 91.0359 32.376 91.7439 32.652C92.4639 32.928 93.0939 33.342 93.6339 33.894C94.1739 34.434 94.5999 35.112 94.9119 35.928C95.2359 36.744 95.3979 37.686 95.3979 38.754C95.3979 39.822 95.2359 40.764 94.9119 41.58C94.5999 42.396 94.1739 43.08 93.6339 43.632C93.0939 44.172 92.4639 44.58 91.7439 44.856C91.0359 45.132 90.2799 45.27 89.4759 45.27C88.6599 45.27 87.8859 45.132 87.1539 44.856C86.4339 44.58 85.7979 44.172 85.2459 43.632C84.7059 43.08 84.2739 42.396 83.9499 41.58C83.6379 40.764 83.4819 39.822 83.4819 38.754ZM85.3179 38.754C85.3179 39.51 85.4139 40.2 85.6059 40.824C85.7979 41.436 86.0679 41.958 86.4159 42.39C86.7759 42.822 87.2079 43.158 87.7119 43.398C88.2279 43.626 88.8039 43.74 89.4399 43.74C90.0759 43.74 90.6459 43.626 91.1499 43.398C91.6539 43.158 92.0799 42.822 92.4279 42.39C92.7879 41.958 93.0639 41.436 93.2559 40.824C93.4479 40.2 93.5439 39.51 93.5439 38.754C93.5439 37.998 93.4479 37.314 93.2559 36.702C93.0639 36.078 92.7879 35.55 92.4279 35.118C92.0799 34.686 91.6539 34.356 91.1499 34.128C90.6459 33.888 90.0759 33.768 89.4399 33.768C88.8039 33.768 88.2279 33.888 87.7119 34.128C87.2079 34.356 86.7759 34.686 86.4159 35.118C86.0679 35.55 85.7979 36.078 85.6059 36.702C85.4139 37.314 85.3179 37.998 85.3179 38.754Z" fill="white"/>
<path d="M5.76 6.98C7.82667 6.98 9.41333 7.34667 10.52 8.08C11.6267 8.8 12.18 9.98667 12.18 11.64C12.18 13.3067 11.62 14.5133 10.5 15.26C9.38 15.9933 7.78 16.36 5.7 16.36H4.72V21H1.6V7.34C2.28 7.20667 3 7.11333 3.76 7.06C4.52 7.00667 5.18667 6.98 5.76 6.98ZM5.96 9.64C5.73333 9.64 5.50667 9.64667 5.28 9.66C5.06667 9.67333 4.88 9.68667 4.72 9.7V13.7H5.7C6.78 13.7 7.59333 13.5533 8.14 13.26C8.68667 12.9667 8.96 12.42 8.96 11.62C8.96 11.2333 8.88667 10.9133 8.74 10.66C8.60667 10.4067 8.40667 10.2067 8.14 10.06C7.88667 9.9 7.57333 9.79333 7.2 9.74C6.82667 9.67333 6.41333 9.64 5.96 9.64ZM22.3839 21C22.2372 20.52 22.0706 20.0267 21.8839 19.52C21.7106 19.0133 21.5372 18.5067 21.3639 18H15.9639C15.7906 18.5067 15.6106 19.0133 15.4239 19.52C15.2506 20.0267 15.0906 20.52 14.9439 21H11.7039C12.2239 19.5067 12.7172 18.1267 13.1839 16.86C13.6506 15.5933 14.1039 14.4 14.5439 13.28C14.9972 12.16 15.4372 11.1 15.8639 10.1C16.3039 9.08667 16.7572 8.1 17.2239 7.14H20.2039C20.6572 8.1 21.1039 9.08667 21.5439 10.1C21.9839 11.1 22.4239 12.16 22.8639 13.28C23.3172 14.4 23.7772 15.5933 24.2439 16.86C24.7106 18.1267 25.2039 19.5067 25.7239 21H22.3839ZM18.6439 10.28C18.5772 10.48 18.4772 10.7533 18.3439 11.1C18.2106 11.4467 18.0572 11.8467 17.8839 12.3C17.7106 12.7533 17.5172 13.2533 17.3039 13.8C17.1039 14.3467 16.8972 14.92 16.6839 15.52H20.6239C20.4106 14.92 20.2039 14.3467 20.0039 13.8C19.8039 13.2533 19.6106 12.7533 19.4239 12.3C19.2506 11.8467 19.0972 11.4467 18.9639 11.1C18.8306 10.7533 18.7239 10.48 18.6439 10.28ZM31.578 6.98C33.658 6.98 35.2513 7.35333 36.358 8.1C37.4646 8.83333 38.018 9.98 38.018 11.54C38.018 12.5133 37.7913 13.3067 37.338 13.92C36.898 14.52 36.258 14.9933 35.418 15.34C35.698 15.6867 35.9913 16.0867 36.298 16.54C36.6046 16.98 36.9046 17.4467 37.198 17.94C37.5046 18.42 37.798 18.9267 38.078 19.46C38.358 19.98 38.618 20.4933 38.858 21H35.358C35.1046 20.5467 34.8446 20.0867 34.578 19.62C34.3246 19.1533 34.058 18.7 33.778 18.26C33.5113 17.82 33.2446 17.4067 32.978 17.02C32.7113 16.62 32.4446 16.26 32.178 15.94H30.638V21H27.518V7.34C28.198 7.20667 28.898 7.11333 29.618 7.06C30.3513 7.00667 31.0046 6.98 31.578 6.98ZM31.758 9.64C31.5313 9.64 31.3246 9.64667 31.138 9.66C30.9646 9.67333 30.798 9.68667 30.638 9.7V13.46H31.518C32.6913 13.46 33.5313 13.3133 34.038 13.02C34.5446 12.7267 34.798 12.2267 34.798 11.52C34.798 10.84 34.538 10.36 34.018 10.08C33.5113 9.78667 32.758 9.64 31.758 9.64ZM40.8578 21V7.14H50.2178V9.76H43.9778V12.48H49.5178V15.04H43.9778V18.38H50.6778V21H40.8578ZM56.1067 18.46C56.2534 18.4733 56.4201 18.4867 56.6067 18.5C56.8067 18.5 57.0401 18.5 57.3067 18.5C58.8667 18.5 60.0201 18.1067 60.7667 17.32C61.5267 16.5333 61.9067 15.4467 61.9067 14.06C61.9067 12.6067 61.5467 11.5067 60.8267 10.76C60.1067 10.0133 58.9667 9.64 57.4067 9.64C57.1934 9.64 56.9734 9.64667 56.7467 9.66C56.5201 9.66 56.3067 9.67333 56.1067 9.7V18.46ZM65.1267 14.06C65.1267 15.26 64.9401 16.3067 64.5667 17.2C64.1934 18.0933 63.6601 18.8333 62.9667 19.42C62.2867 20.0067 61.4534 20.4467 60.4667 20.74C59.4801 21.0333 58.3734 21.18 57.1467 21.18C56.5867 21.18 55.9334 21.1533 55.1867 21.1C54.4401 21.06 53.7067 20.9667 52.9867 20.82V7.32C53.7067 7.18667 54.4534 7.1 55.2267 7.06C56.0134 7.00667 56.6867 6.98 57.2467 6.98C58.4334 6.98 59.5067 7.11333 60.4667 7.38C61.4401 7.64667 62.2734 8.06667 62.9667 8.64C63.6601 9.21333 64.1934 9.94667 64.5667 10.84C64.9401 11.7333 65.1267 12.8067 65.1267 14.06ZM67.7328 7.14H70.8528V21H67.7328V7.14ZM77.8409 18.62C78.2809 18.62 78.6409 18.5867 78.9209 18.52C79.2143 18.44 79.4476 18.34 79.6209 18.22C79.7943 18.0867 79.9143 17.9333 79.9809 17.76C80.0476 17.5867 80.0809 17.3933 80.0809 17.18C80.0809 16.7267 79.8676 16.3533 79.4409 16.06C79.0143 15.7533 78.2809 15.4267 77.2409 15.08C76.7876 14.92 76.3343 14.74 75.8809 14.54C75.4276 14.3267 75.0209 14.0667 74.6609 13.76C74.3009 13.44 74.0076 13.06 73.7809 12.62C73.5543 12.1667 73.4409 11.62 73.4409 10.98C73.4409 10.34 73.5609 9.76667 73.8009 9.26C74.0409 8.74 74.3809 8.3 74.8209 7.94C75.2609 7.58 75.7943 7.30667 76.4209 7.12C77.0476 6.92 77.7543 6.82 78.5409 6.82C79.4743 6.82 80.2809 6.92 80.9609 7.12C81.6409 7.32 82.2009 7.54 82.6409 7.78L81.7409 10.24C81.3543 10.04 80.9209 9.86667 80.4409 9.72C79.9743 9.56 79.4076 9.48 78.7409 9.48C77.9943 9.48 77.4543 9.58667 77.1209 9.8C76.8009 10 76.6409 10.3133 76.6409 10.74C76.6409 10.9933 76.7009 11.2067 76.8209 11.38C76.9409 11.5533 77.1076 11.7133 77.3209 11.86C77.5476 11.9933 77.8009 12.12 78.0809 12.24C78.3743 12.3467 78.6943 12.46 79.0409 12.58C79.7609 12.8467 80.3876 13.1133 80.9209 13.38C81.4543 13.6333 81.8943 13.9333 82.2409 14.28C82.6009 14.6267 82.8676 15.0333 83.0409 15.5C83.2143 15.9667 83.3009 16.5333 83.3009 17.2C83.3009 18.4933 82.8476 19.5 81.9409 20.22C81.0343 20.9267 79.6676 21.28 77.8409 21.28C77.2276 21.28 76.6743 21.24 76.1809 21.16C75.6876 21.0933 75.2476 21.0067 74.8609 20.9C74.4876 20.7933 74.1609 20.68 73.8809 20.56C73.6143 20.44 73.3876 20.3267 73.2009 20.22L74.0809 17.74C74.4943 17.9667 75.0009 18.1733 75.6009 18.36C76.2143 18.5333 76.9609 18.62 77.8409 18.62ZM85.7016 21V7.14H95.0616V9.76H88.8216V12.48H94.3616V15.04H88.8216V18.38H95.5216V21H85.7016Z" fill="white"/>
</svg>
